<svg width="336" height="560" viewBox="0 0 336 560" fill="none" xmlns="http://www.w3.org/2000/svg">
<path fill-rule="evenodd" clip-rule="evenodd" d="M56 110C26.5107 110 2.54231 86.3619 2.00907 57H56.0088C56.4524 82.3339 73.719 103.565 97.1143 110H56ZM56 2C26.5107 2 2.54231 25.6381 2.00907 55H56.0088C56.4524 29.6661 73.719 8.4347 97.1143 2H56ZM111 109.991C81.9707 109.464 58.5363 86.0293 58.0091 57H111V109.991ZM113 112H112H111H56C25.0721 112 0 86.9279 0 56C0 25.0721 25.0721 0 56 0H111H112H113H168H169V0.00874914C199.467 0.542244 224 25.4061 224 56C224 86.5939 199.467 111.458 169 111.991V112H168H113ZM111 2.00907C81.9707 2.53627 58.5363 25.9707 58.0091 55H111V2.00907ZM113 45.4096V2H153.114C132.742 7.60338 117.016 24.4272 113 45.4096ZM113 66.5904C117.016 87.5728 132.741 104.397 153.114 110H113V66.5904ZM167 109.991C137.971 109.464 114.536 86.0293 114.009 57H167V109.991ZM114.009 55H167V2.00907C137.971 2.53627 114.536 25.9707 114.009 55ZM169 109.991C198.362 109.458 222 85.4893 222 56C222 26.5107 198.362 2.54231 169 2.00907V109.991Z" fill="white"/>
<path d="M317.435 97.6494C328.833 87.3984 336 72.5362 336 56C336 25.0721 310.928 0 280 0C263.12 0 247.984 7.46882 237.717 19.2821L317.435 97.6494Z" fill="white"/>
<path d="M315.916 98.9673C306.194 107.103 293.669 112 280 112C249.072 112 224 86.9279 224 56C224 42.6752 228.654 30.4374 236.425 20.8233L315.916 98.9673Z" fill="white"/>
<path d="M224 224C224 285.856 274.144 336 336 336V112C274.144 112 224 162.144 224 224Z" fill="#AEC9FE"/>
<path fill-rule="evenodd" clip-rule="evenodd" d="M280 336C310.597 336 335.462 360.538 335.991 391.009L336 391V391.97L336 392V504L336 504.029V505L335.991 504.991C335.462 535.462 310.597 560 280 560C249.403 560 224.538 535.462 224.009 504.991L224 505V392V391L224.009 391.009C224.538 360.538 249.403 336 280 336ZM226 406.886V504C226 533.823 250.177 558 280 558C309.823 558 334 533.823 334 504V406.886C327.481 430.588 305.774 448 280 448C254.226 448 232.519 430.588 226 406.886ZM334 392L226 392C226 362.177 250.177 338 280 338C309.823 338 334 362.177 334 392Z" fill="white"/>
<path fill-rule="evenodd" clip-rule="evenodd" d="M168.991 559.991C199.462 559.462 224 534.597 224 504C224 473.403 199.462 448.538 168.991 448.009L169 448L55 448L55.0086 448.009C24.538 448.538 2.44784e-06 473.403 0 504C-1.33743e-06 534.597 24.538 559.462 55.0086 559.991L55 560H55.9707L56 560L168 560L168.03 560H169L168.991 559.991ZM168 544C145.909 544 128 526.091 128 504C128 481.909 145.909 464 168 464V544Z" fill="white"/>
<path d="M112 448C173.856 448 224 397.856 224 336H168C168 366.928 142.928 392 112 392C81.0721 392 56 366.928 56 336H0C0 397.856 50.1441 448 112 448Z" fill="#2B63D9"/>
<path d="M0 224C0 162.144 50.1441 112 112 112H224V224C224 285.856 173.856 336 112 336C50.1441 336 0 285.856 0 224Z" fill="#69A1F5"/>
</svg>
