<svg width="20" height="5" viewBox="0 0 514 99" fill="none" xmlns="http://www.w3.org/2000/svg">
<path d="M80.1605 36.6602V0.296519H104.663V6.6353H87.8487V15.3001H103.403V21.6388H87.8487V30.3214H104.734V36.6602H80.1605ZM109.784 36.6602V9.38743H117.117V14.146H117.401C117.898 12.4532 118.733 11.1748 119.904 10.3107C121.076 9.43478 122.426 8.9968 123.953 8.9968C124.332 8.9968 124.74 9.02048 125.178 9.06783C125.616 9.11518 126.001 9.18028 126.332 9.26314V15.9748C125.977 15.8683 125.486 15.7736 124.858 15.6907C124.231 15.6078 123.657 15.5664 123.136 15.5664C122.023 15.5664 121.029 15.8091 120.153 16.2944C119.289 16.7679 118.602 17.4308 118.093 18.283C117.596 19.1353 117.348 20.1178 117.348 21.2305V36.6602H109.784ZM140.41 47.4556C137.96 47.4556 135.859 47.1183 134.107 46.4435C132.367 45.7807 130.982 44.8751 129.952 43.7269C128.922 42.5787 128.253 41.2885 127.946 39.8562L134.941 38.9151C135.154 39.4596 135.492 39.9686 135.953 40.4421C136.415 40.9156 137.025 41.2944 137.782 41.5785C138.552 41.8744 139.487 42.0224 140.588 42.0224C142.233 42.0224 143.588 41.6199 144.654 40.815C145.731 40.0219 146.269 38.6902 146.269 36.82V31.8306H145.95C145.618 32.5882 145.121 33.3043 144.458 33.979C143.796 34.6538 142.943 35.2042 141.902 35.6303C140.86 36.0565 139.617 36.2695 138.173 36.2695C136.125 36.2695 134.261 35.796 132.58 34.8491C130.911 33.8903 129.579 32.4284 128.585 30.4634C127.602 28.4866 127.111 25.989 127.111 22.9705C127.111 19.881 127.614 17.3005 128.62 15.229C129.626 13.1576 130.964 11.6069 132.633 10.5771C134.314 9.54723 136.155 9.03232 138.155 9.03232C139.682 9.03232 140.961 9.29273 141.99 9.81357C143.02 10.3226 143.849 10.9618 144.476 11.7312C145.115 12.4888 145.607 13.2345 145.95 13.9684H146.234V9.38743H153.745V36.9265C153.745 39.2466 153.176 41.1879 152.04 42.7504C150.904 44.3129 149.329 45.4847 147.317 46.266C145.317 47.0591 143.014 47.4556 140.41 47.4556ZM140.57 30.5877C141.789 30.5877 142.819 30.2859 143.659 29.6822C144.512 29.0666 145.163 28.1907 145.612 27.0543C146.074 25.9061 146.305 24.533 146.305 22.935C146.305 21.337 146.08 19.9521 145.63 18.7802C145.18 17.5965 144.529 16.6791 143.677 16.0281C142.825 15.377 141.789 15.0515 140.57 15.0515C139.327 15.0515 138.279 15.3888 137.427 16.0636C136.575 16.7264 135.93 17.6497 135.492 18.8335C135.054 20.0172 134.835 21.3844 134.835 22.935C134.835 24.5094 135.054 25.8706 135.492 27.0188C135.942 28.1552 136.587 29.0371 137.427 29.6644C138.279 30.2799 139.327 30.5877 140.57 30.5877ZM171.236 37.1928C168.478 37.1928 166.093 36.6069 164.081 35.435C162.08 34.2513 160.535 32.6059 159.446 30.4989C158.357 28.3801 157.813 25.9239 157.813 23.1303C157.813 20.3131 158.357 17.851 159.446 15.744C160.535 13.6251 162.08 11.9798 164.081 10.8079C166.093 9.62417 168.478 9.03232 171.236 9.03232C173.994 9.03232 176.374 9.62417 178.374 10.8079C180.386 11.9798 181.937 13.6251 183.026 15.744C184.115 17.851 184.66 20.3131 184.66 23.1303C184.66 25.9239 184.115 28.3801 183.026 30.4989C181.937 32.6059 180.386 34.2513 178.374 35.435C176.374 36.6069 173.994 37.1928 171.236 37.1928ZM171.272 31.3335C172.526 31.3335 173.574 30.9783 174.414 30.2681C175.255 29.546 175.888 28.5636 176.314 27.3207C176.752 26.0778 176.971 24.6632 176.971 23.0771C176.971 21.4909 176.752 20.0763 176.314 18.8335C175.888 17.5906 175.255 16.6081 174.414 15.886C173.574 15.1639 172.526 14.8029 171.272 14.8029C170.005 14.8029 168.94 15.1639 168.076 15.886C167.223 16.6081 166.578 17.5906 166.14 18.8335C165.714 20.0763 165.501 21.4909 165.501 23.0771C165.501 24.6632 165.714 26.0778 166.14 27.3207C166.578 28.5636 167.223 29.546 168.076 30.2681C168.94 30.9783 170.005 31.3335 171.272 31.3335Z" fill="#0D62E0"/>
<path d="M188.87 36.6602V0.296519H213.373V6.6353H196.558V15.3001H212.112V21.6388H196.558V30.3214H213.444V36.6602H188.87ZM226.27 37.1751C224.53 37.1751 222.979 36.8732 221.618 36.2695C220.257 35.654 219.18 34.7485 218.387 33.5529C217.605 32.3455 217.215 30.8422 217.215 29.043C217.215 27.5278 217.493 26.2553 218.049 25.2255C218.606 24.1957 219.363 23.3671 220.322 22.7397C221.281 22.1123 222.37 21.6388 223.589 21.3192C224.82 20.9996 226.11 20.7747 227.46 20.6445C229.046 20.4788 230.324 20.3249 231.295 20.1829C232.266 20.029 232.97 19.8041 233.408 19.5082C233.846 19.2122 234.065 18.7743 234.065 18.1942V18.0877C234.065 16.9632 233.71 16.0932 232.999 15.4776C232.301 14.8621 231.307 14.5543 230.017 14.5543C228.655 14.5543 227.572 14.8562 226.767 15.4599C225.962 16.0517 225.43 16.7975 225.169 17.6971L218.173 17.1289C218.529 15.4717 219.227 14.0394 220.269 12.832C221.31 11.6128 222.654 10.6777 224.299 10.0266C225.956 9.36375 227.874 9.03232 230.052 9.03232C231.567 9.03232 233.017 9.20987 234.402 9.56498C235.799 9.9201 237.036 10.4705 238.113 11.2163C239.202 11.962 240.06 12.9208 240.688 14.0927C241.315 15.2527 241.629 16.6436 241.629 18.2653V36.6602H234.455V32.8782H234.242C233.804 33.7305 233.218 34.4821 232.485 35.1332C231.751 35.7724 230.869 36.2754 229.839 36.6424C228.809 36.9975 227.619 37.1751 226.27 37.1751ZM228.436 31.9549C229.549 31.9549 230.531 31.7359 231.384 31.2979C232.236 30.8481 232.905 30.2444 233.39 29.4869C233.875 28.7293 234.118 27.8711 234.118 26.9123V24.0181C233.881 24.172 233.556 24.314 233.142 24.4442C232.739 24.5626 232.283 24.6751 231.774 24.7816C231.265 24.8763 230.756 24.9651 230.247 25.0479C229.738 25.119 229.277 25.1841 228.862 25.2433C227.975 25.3735 227.199 25.5806 226.536 25.8647C225.874 26.1488 225.359 26.5335 224.992 27.0188C224.625 27.4923 224.441 28.0842 224.441 28.7944C224.441 29.8242 224.814 30.6114 225.56 31.1559C226.317 31.6886 227.276 31.9549 228.436 31.9549ZM269.339 17.1644L262.414 17.5906C262.296 16.9987 262.041 16.466 261.651 15.9925C261.26 15.5072 260.745 15.1225 260.106 14.8384C259.478 14.5425 258.727 14.3945 257.851 14.3945C256.679 14.3945 255.691 14.6431 254.886 15.1403C254.081 15.6256 253.678 16.2766 253.678 17.0934C253.678 17.7444 253.939 18.2949 254.459 18.7447C254.98 19.1945 255.874 19.5555 257.141 19.8278L262.077 20.8221C264.728 21.3666 266.705 22.2425 268.007 23.4499C269.309 24.6573 269.96 26.2435 269.96 28.2085C269.96 29.9959 269.433 31.5643 268.38 32.9137C267.338 34.2631 265.906 35.3166 264.083 36.0742C262.272 36.82 260.183 37.1928 257.815 37.1928C254.205 37.1928 251.329 36.4412 249.186 34.9379C247.055 33.4227 245.807 31.363 245.44 28.7589L252.879 28.3683C253.104 29.4691 253.649 30.3095 254.513 30.8896C255.377 31.4577 256.484 31.7418 257.833 31.7418C259.159 31.7418 260.224 31.4873 261.029 30.9783C261.846 30.4575 262.26 29.7887 262.272 28.9719C262.26 28.2854 261.97 27.7231 261.402 27.2852C260.834 26.8353 259.958 26.4921 258.774 26.2553L254.051 25.3143C251.388 24.7816 249.405 23.8583 248.103 22.5444C246.813 21.2305 246.168 19.5555 246.168 17.5195C246.168 15.7676 246.641 14.2584 247.588 12.9918C248.547 11.7253 249.89 10.7487 251.619 10.0621C253.359 9.37559 255.395 9.03232 257.727 9.03232C261.171 9.03232 263.882 9.7603 265.859 11.2163C267.847 12.6722 269.007 14.6549 269.339 17.1644ZM286.302 37.1928C283.497 37.1928 281.082 36.6246 279.058 35.4883C277.046 34.3401 275.495 32.7184 274.406 30.6232C273.317 28.5162 272.772 26.0245 272.772 23.1481C272.772 20.3427 273.317 17.8806 274.406 15.7617C275.495 13.6429 277.028 11.9916 279.005 10.8079C280.993 9.62417 283.325 9.03232 286 9.03232C287.8 9.03232 289.474 9.32232 291.025 9.90234C292.588 10.4705 293.949 11.3287 295.109 12.4769C296.281 13.6251 297.192 15.0692 297.843 16.8093C298.494 18.5375 298.82 20.5617 298.82 22.8817V24.9592H275.791V20.2717H291.7C291.7 19.1826 291.463 18.2179 290.99 17.3775C290.516 16.537 289.859 15.8801 289.019 15.4066C288.19 14.9213 287.225 14.6786 286.125 14.6786C284.976 14.6786 283.958 14.945 283.071 15.4776C282.195 15.9985 281.508 16.7028 281.011 17.5906C280.514 18.4665 280.259 19.4431 280.247 20.5202V24.9769C280.247 26.3263 280.496 27.4923 280.993 28.4748C281.502 29.4573 282.218 30.2148 283.142 30.7475C284.065 31.2802 285.16 31.5465 286.426 31.5465C287.267 31.5465 288.036 31.4281 288.735 31.1914C289.433 30.9547 290.031 30.5996 290.528 30.1261C291.025 29.6526 291.404 29.0726 291.664 28.386L298.66 28.8477C298.305 30.5285 297.577 31.9963 296.476 33.2511C295.387 34.494 293.979 35.4646 292.25 36.163C290.534 36.8496 288.551 37.1928 286.302 37.1928Z" fill="#3DE2FF" fill-opacity="0.76"/>
<path d="M80.1605 97.6602V61.2965H94.5071C97.2652 61.2965 99.6148 61.8233 101.556 62.8768C103.497 63.9184 104.977 65.3685 105.995 67.2269C107.025 69.0735 107.54 71.2042 107.54 73.619C107.54 76.0337 107.019 78.1644 105.977 80.011C104.936 81.8576 103.426 83.2958 101.45 84.3256C99.4846 85.3555 97.1054 85.8704 94.3118 85.8704H85.1676V79.7092H93.0689C94.5485 79.7092 95.7678 79.4547 96.7266 78.9457C97.6972 78.4248 98.4193 77.7087 98.8928 76.7972C99.3781 75.8739 99.6207 74.8145 99.6207 73.619C99.6207 72.4116 99.3781 71.3581 98.8928 70.4585C98.4193 69.547 97.6972 68.8427 96.7266 68.3455C95.7559 67.8365 94.5249 67.582 93.0334 67.582H87.8487V97.6602H80.1605ZM111.542 97.6602V70.3874H118.875V75.146H119.159C119.656 73.4532 120.49 72.1748 121.662 71.3107C122.834 70.4348 124.184 69.9968 125.711 69.9968C126.089 69.9968 126.498 70.0205 126.936 70.0678C127.374 70.1152 127.758 70.1803 128.09 70.2631V76.9748C127.735 76.8683 127.243 76.7736 126.616 76.6907C125.989 76.6078 125.415 76.5664 124.894 76.5664C123.781 76.5664 122.787 76.8091 121.911 77.2944C121.047 77.7679 120.36 78.4308 119.851 79.283C119.354 80.1353 119.105 81.1178 119.105 82.2305V97.6602H111.542ZM142.203 98.1928C139.445 98.1928 137.06 97.6069 135.048 96.435C133.047 95.2513 131.503 93.6059 130.414 91.4989C129.325 89.3801 128.78 86.9239 128.78 84.1303C128.78 81.3131 129.325 78.851 130.414 76.744C131.503 74.6251 133.047 72.9798 135.048 71.8079C137.06 70.6242 139.445 70.0323 142.203 70.0323C144.961 70.0323 147.341 70.6242 149.341 71.8079C151.354 72.9798 152.904 74.6251 153.993 76.744C155.082 78.851 155.627 81.3131 155.627 84.1303C155.627 86.9239 155.082 89.3801 153.993 91.4989C152.904 93.6059 151.354 95.2513 149.341 96.435C147.341 97.6069 144.961 98.1928 142.203 98.1928ZM142.239 92.3335C143.494 92.3335 144.541 91.9783 145.382 91.2681C146.222 90.546 146.855 89.5636 147.282 88.3207C147.72 87.0778 147.938 85.6632 147.938 84.0771C147.938 82.4909 147.72 81.0763 147.282 79.8335C146.855 78.5906 146.222 77.6081 145.382 76.886C144.541 76.1639 143.494 75.8029 142.239 75.8029C140.972 75.8029 139.907 76.1639 139.043 76.886C138.191 77.6081 137.546 78.5906 137.108 79.8335C136.681 81.0763 136.468 82.4909 136.468 84.0771C136.468 85.6632 136.681 87.0778 137.108 88.3207C137.546 89.5636 138.191 90.546 139.043 91.2681C139.907 91.9783 140.972 92.3335 142.239 92.3335ZM174.361 70.3874V76.0692H157.529V70.3874H174.361ZM161.382 97.6602V68.4165C161.382 66.4397 161.767 64.8003 162.536 63.4982C163.317 62.1961 164.383 61.2196 165.732 60.5685C167.081 59.9175 168.614 59.592 170.331 59.592C171.491 59.592 172.55 59.6808 173.509 59.8583C174.48 60.0359 175.202 60.1957 175.675 60.3377L174.326 66.0195C174.03 65.9248 173.663 65.8361 173.225 65.7532C172.799 65.6703 172.361 65.6289 171.911 65.6289C170.798 65.6289 170.023 65.8893 169.585 66.4102C169.147 66.9192 168.928 67.6353 168.928 68.5586V97.6602H161.382ZM178.132 97.6602V70.3874H185.696V97.6602H178.132ZM181.932 66.8718C180.807 66.8718 179.843 66.4989 179.038 65.7532C178.245 64.9956 177.848 64.0901 177.848 63.0366C177.848 61.9949 178.245 61.1012 179.038 60.3555C179.843 59.5979 180.807 59.2191 181.932 59.2191C183.056 59.2191 184.015 59.5979 184.808 60.3555C185.613 61.1012 186.016 61.9949 186.016 63.0366C186.016 64.0901 185.613 64.9956 184.808 65.7532C184.015 66.4989 183.056 66.8718 181.932 66.8718ZM213.597 78.1644L206.672 78.5906C206.554 77.9987 206.299 77.466 205.909 76.9925C205.518 76.5072 205.003 76.1225 204.364 75.8384C203.737 75.5425 202.985 75.3945 202.109 75.3945C200.937 75.3945 199.949 75.6431 199.144 76.1403C198.339 76.6256 197.936 77.2766 197.936 78.0934C197.936 78.7444 198.197 79.2949 198.718 79.7447C199.239 80.1945 200.132 80.5555 201.399 80.8278L206.335 81.8221C208.986 82.3666 210.963 83.2425 212.265 84.4499C213.567 85.6573 214.218 87.2435 214.218 89.2085C214.218 90.9959 213.692 92.5643 212.638 93.9137C211.596 95.2631 210.164 96.3166 208.341 97.0742C206.53 97.82 204.441 98.1928 202.074 98.1928C198.463 98.1928 195.587 97.4412 193.444 95.9379C191.314 94.4227 190.065 92.363 189.698 89.7589L197.137 89.3683C197.362 90.4691 197.907 91.3095 198.771 91.8896C199.635 92.4577 200.742 92.7418 202.091 92.7418C203.417 92.7418 204.482 92.4873 205.287 91.9783C206.104 91.4575 206.518 90.7887 206.53 89.9719C206.518 89.2854 206.228 88.7231 205.66 88.2852C205.092 87.8353 204.216 87.4921 203.032 87.2553L198.309 86.3143C195.646 85.7816 193.663 84.8583 192.361 83.5444C191.071 82.2305 190.426 80.5555 190.426 78.5195C190.426 76.7676 190.899 75.2584 191.846 73.9918C192.805 72.7253 194.149 71.7487 195.877 71.0621C197.617 70.3756 199.653 70.0323 201.985 70.0323C205.429 70.0323 208.14 70.7603 210.117 72.2163C212.105 73.6722 213.266 75.6549 213.597 78.1644ZM240.823 78.1644L233.898 78.5906C233.78 77.9987 233.526 77.466 233.135 76.9925C232.744 76.5072 232.229 76.1225 231.59 75.8384C230.963 75.5425 230.211 75.3945 229.335 75.3945C228.163 75.3945 227.175 75.6431 226.37 76.1403C225.565 76.6256 225.163 77.2766 225.163 78.0934C225.163 78.7444 225.423 79.2949 225.944 79.7447C226.465 80.1945 227.358 80.5555 228.625 80.8278L233.561 81.8221C236.213 82.3666 238.189 83.2425 239.491 84.4499C240.794 85.6573 241.445 87.2435 241.445 89.2085C241.445 90.9959 240.918 92.5643 239.864 93.9137C238.823 95.2631 237.39 96.3166 235.567 97.0742C233.756 97.82 231.667 98.1928 229.3 98.1928C225.689 98.1928 222.813 97.4412 220.67 95.9379C218.54 94.4227 217.291 92.363 216.924 89.7589L224.364 89.3683C224.589 90.4691 225.133 91.3095 225.997 91.8896C226.861 92.4577 227.968 92.7418 229.317 92.7418C230.643 92.7418 231.709 92.4873 232.513 91.9783C233.33 91.4575 233.745 90.7887 233.756 89.9719C233.745 89.2854 233.455 88.7231 232.886 88.2852C232.318 87.8353 231.442 87.4921 230.258 87.2553L225.535 86.3143C222.872 85.7816 220.889 84.8583 219.587 83.5444C218.297 82.2305 217.652 80.5555 217.652 78.5195C217.652 76.7676 218.125 75.2584 219.072 73.9918C220.031 72.7253 221.375 71.7487 223.103 71.0621C224.843 70.3756 226.879 70.0323 229.211 70.0323C232.655 70.0323 235.366 70.7603 237.343 72.2163C239.332 73.6722 240.492 75.6549 240.823 78.1644ZM245.358 97.6602V70.3874H252.921V97.6602H245.358ZM249.157 66.8718C248.033 66.8718 247.068 66.4989 246.263 65.7532C245.47 64.9956 245.073 64.0901 245.073 63.0366C245.073 61.9949 245.47 61.1012 246.263 60.3555C247.068 59.5979 248.033 59.2191 249.157 59.2191C250.282 59.2191 251.241 59.5979 252.034 60.3555C252.839 61.1012 253.241 61.9949 253.241 63.0366C253.241 64.0901 252.839 64.9956 252.034 65.7532C251.241 66.4989 250.282 66.8718 249.157 66.8718ZM270.453 98.1928C267.695 98.1928 265.31 97.6069 263.297 96.435C261.297 95.2513 259.752 93.6059 258.663 91.4989C257.574 89.3801 257.03 86.9239 257.03 84.1303C257.03 81.3131 257.574 78.851 258.663 76.744C259.752 74.6251 261.297 72.9798 263.297 71.8079C265.31 70.6242 267.695 70.0323 270.453 70.0323C273.211 70.0323 275.59 70.6242 277.591 71.8079C279.603 72.9798 281.154 74.6251 282.243 76.744C283.332 78.851 283.876 81.3131 283.876 84.1303C283.876 86.9239 283.332 89.3801 282.243 91.4989C281.154 93.6059 279.603 95.2513 277.591 96.435C275.59 97.6069 273.211 98.1928 270.453 98.1928ZM270.489 92.3335C271.743 92.3335 272.791 91.9783 273.631 91.2681C274.472 90.546 275.105 89.5636 275.531 88.3207C275.969 87.0778 276.188 85.6632 276.188 84.0771C276.188 82.4909 275.969 81.0763 275.531 79.8335C275.105 78.5906 274.472 77.6081 273.631 76.886C272.791 76.1639 271.743 75.8029 270.489 75.8029C269.222 75.8029 268.157 76.1639 267.293 76.886C266.44 77.6081 265.795 78.5906 265.357 79.8335C264.931 81.0763 264.718 82.4909 264.718 84.0771C264.718 85.6632 264.931 87.0778 265.357 88.3207C265.795 89.5636 266.44 90.546 267.293 91.2681C268.157 91.9783 269.222 92.3335 270.489 92.3335ZM295.509 81.8931V97.6602H287.945V70.3874H295.153V75.1992H295.473C296.077 73.613 297.089 72.3583 298.509 71.435C299.93 70.4999 301.652 70.0323 303.676 70.0323C305.57 70.0323 307.221 70.4466 308.63 71.2752C310.039 72.1038 311.134 73.2875 311.915 74.8263C312.696 76.3533 313.087 78.1763 313.087 80.2951V97.6602H305.523V81.6445C305.535 79.9755 305.108 78.6734 304.244 77.7383C303.38 76.7913 302.191 76.3178 300.675 76.3178C299.657 76.3178 298.758 76.5368 297.977 76.9748C297.207 77.4128 296.603 78.052 296.166 78.8924C295.739 79.721 295.52 80.7212 295.509 81.8931ZM325.975 98.1751C324.235 98.1751 322.684 97.8732 321.323 97.2695C319.962 96.654 318.885 95.7485 318.092 94.5529C317.31 93.3455 316.92 91.8422 316.92 90.043C316.92 88.5278 317.198 87.2553 317.754 86.2255C318.311 85.1957 319.068 84.3671 320.027 83.7397C320.986 83.1123 322.075 82.6388 323.294 82.3192C324.525 81.9996 325.815 81.7747 327.165 81.6445C328.751 81.4788 330.029 81.3249 331 81.1829C331.971 81.029 332.675 80.8041 333.113 80.5082C333.551 80.2122 333.77 79.7743 333.77 79.1942V79.0877C333.77 77.9632 333.415 77.0932 332.705 76.4776C332.006 75.8621 331.012 75.5543 329.722 75.5543C328.36 75.5543 327.277 75.8562 326.472 76.4599C325.667 77.0517 325.135 77.7975 324.874 78.6971L317.879 78.1289C318.234 76.4717 318.932 75.0394 319.974 73.832C321.015 72.6128 322.359 71.6777 324.004 71.0266C325.661 70.3638 327.579 70.0323 329.757 70.0323C331.272 70.0323 332.722 70.2099 334.107 70.565C335.504 70.9201 336.741 71.4705 337.818 72.2163C338.907 72.962 339.765 73.9208 340.393 75.0927C341.02 76.2527 341.334 77.6436 341.334 79.2653V97.6602H334.161V93.8782H333.947C333.509 94.7305 332.924 95.4821 332.19 96.1332C331.456 96.7724 330.574 97.2754 329.544 97.6424C328.514 97.9975 327.325 98.1751 325.975 98.1751ZM328.141 92.9549C329.254 92.9549 330.237 92.7359 331.089 92.2979C331.941 91.8481 332.61 91.2444 333.095 90.4869C333.58 89.7293 333.823 88.8711 333.823 87.9123V85.0181C333.586 85.172 333.261 85.314 332.847 85.4442C332.444 85.5626 331.988 85.6751 331.479 85.7816C330.97 85.8763 330.461 85.9651 329.952 86.0479C329.443 86.119 328.982 86.1841 328.567 86.2433C327.68 86.3735 326.904 86.5806 326.241 86.8647C325.579 87.1488 325.064 87.5335 324.697 88.0188C324.33 88.4923 324.146 89.0842 324.146 89.7944C324.146 90.8242 324.519 91.6114 325.265 92.1559C326.022 92.6886 326.981 92.9549 328.141 92.9549ZM353.916 61.2965V97.6602H346.352V61.2965H353.916Z" fill="white"/>
<rect y="31.6289" width="32" height="54.3522" rx="16" transform="rotate(-45 0 31.6289)" fill="#0E0E2C"/>
<rect y="31.6289" width="32" height="54.3522" rx="16" transform="rotate(-45 0 31.6289)" fill="#085FCE"/>
<rect x="54.2539" y="9.32031" width="32" height="54.3522" rx="16" transform="rotate(45 54.2539 9.32031)" fill="#3DE2FF" fill-opacity="0.76"/>
</svg>
