<svg width="448" height="560" viewBox="0 0 448 560" fill="none" xmlns="http://www.w3.org/2000/svg">
<path d="M0 336L112 448V336H0Z" fill="#AEC9FE"/>
<circle cx="56" cy="504" r="55" stroke="white" stroke-width="2"/>
<circle cx="56" cy="504" r="28" fill="#B1CCFB"/>
<path d="M0 224L112 336V224H0Z" fill="#AEC9FE"/>
<circle cx="56" cy="168" r="56" fill="white"/>
<path fill-rule="evenodd" clip-rule="evenodd" d="M168 110C138.511 110 114.542 86.3619 114.009 57H168.009C168.452 82.3339 185.719 103.565 209.114 110H168ZM168 2C138.511 2 114.542 25.6381 114.009 55H168.009C168.452 29.6661 185.719 8.4347 209.114 2H168ZM223 109.991C193.971 109.464 170.536 86.0293 170.009 57H223V109.991ZM225 112H224H223H168C137.072 112 112 86.9279 112 56C112 25.0721 137.072 0 168 0H223H224H225H280H281V0.00874914C311.467 0.542244 336 25.4061 336 56C336 86.5939 311.467 111.458 281 111.991V112H280H225ZM223 2.00907C193.971 2.53627 170.536 25.9707 170.009 55H223V2.00907ZM225 45.4096V2H265.114C244.742 7.60338 229.016 24.4272 225 45.4096ZM225 66.5904C229.016 87.5728 244.741 104.397 265.114 110H225V66.5904ZM279 109.991C249.971 109.464 226.536 86.0293 226.009 57H279V109.991ZM226.009 55H279V2.00907C249.971 2.53627 226.536 25.9707 226.009 55ZM281 109.991C310.362 109.458 334 85.4893 334 56C334 26.5107 310.362 2.54231 281 2.00907V109.991Z" fill="white"/>
<path d="M429.435 97.6494C440.833 87.3984 448 72.5362 448 56C448 25.0721 422.928 0 392 0C375.12 0 359.984 7.46882 349.717 19.2821L429.435 97.6494Z" fill="white"/>
<path d="M427.916 98.9673C418.194 107.103 405.669 112 392 112C361.072 112 336 86.9279 336 56C336 42.6752 340.654 30.4374 348.425 20.8233L427.916 98.9673Z" fill="white"/>
<path d="M336 224C336 285.856 386.144 336 448 336V112C386.144 112 336 162.144 336 224Z" fill="#AEC9FE"/>
<path fill-rule="evenodd" clip-rule="evenodd" d="M392 336C422.597 336 447.462 360.538 447.991 391.009L448 391V391.97L448 392V504L448 504.029V505L447.991 504.991C447.462 535.462 422.597 560 392 560C361.403 560 336.538 535.462 336.009 504.991L336 505V392V391L336.009 391.009C336.538 360.538 361.403 336 392 336ZM338 406.886V504C338 533.823 362.177 558 392 558C421.823 558 446 533.823 446 504V406.886C439.481 430.588 417.774 448 392 448C366.226 448 344.519 430.588 338 406.886ZM446 392L338 392C338 362.177 362.177 338 392 338C421.823 338 446 362.177 446 392Z" fill="white"/>
<path fill-rule="evenodd" clip-rule="evenodd" d="M280.991 559.991C311.462 559.462 336 534.597 336 504C336 473.403 311.462 448.538 280.991 448.009L281 448L167 448L167.009 448.009C136.538 448.538 112 473.403 112 504C112 534.597 136.538 559.462 167.009 559.991L167 560H167.971L168 560L280 560L280.03 560H281L280.991 559.991ZM280 544C257.909 544 240 526.091 240 504C240 481.909 257.909 464 280 464V544Z" fill="white"/>
<path d="M224 448C285.856 448 336 397.856 336 336H280C280 366.928 254.928 392 224 392C193.072 392 168 366.928 168 336H112C112 397.856 162.144 448 224 448Z" fill="#2B63D9"/>
<path d="M112 224C112 162.144 162.144 112 224 112H336V224C336 285.856 285.856 336 224 336C162.144 336 112 285.856 112 224Z" fill="#69A1F5"/>
</svg>
